HIERARCHY
ROOT Hips
{
	OFFSET 0.000000 100.481300 0.000000
	CHANNELS 6 Xposition Yposition Zposition Xrotation Yrotation Zrotation
	JOINT Spine
	{
		OFFSET -0.279200 12.230698 -2.892100
		CHANNELS 3 Xrotation Yrotation Zrotation
		JOINT Spine1
		{
			OFFSET -0.325700 14.269203 -3.374200
			CHANNELS 3 Xrotation Yrotation Zrotation
			JOINT Spine2
			{
				OFFSET -0.372300 16.307602 -0.352600
				CHANNELS 3 Xrotation Yrotation Zrotation
				JOINT Neck
				{
					OFFSET -0.418800 17.814194 8.416900
					CHANNELS 3 Xrotation Yrotation Zrotation
					JOINT Head
					{
						OFFSET 0.000000 7.031097 3.806800
						CHANNELS 3 Xrotation Yrotation Zrotation
						JOINT HeadTop_End
						{
							OFFSET 0.000000 24.646606 12.978600
							CHANNELS 3 Xrotation Yrotation Zrotation
							End Site
							{
								OFFSET 0.000000 27.854965 0.000000
							}
						}
					}
				}
				JOINT LeftShoulder
				{
					OFFSET 16.952999 14.495407 -7.737500
					CHANNELS 3 Xrotation Yrotation Zrotation
					JOINT LeftArm
					{
						OFFSET 9.308998 -2.777710 0.208600
						CHANNELS 3 Xrotation Yrotation Zrotation
						JOINT LeftForeArm
						{
							OFFSET 29.972298 0.000000 0.000000
							CHANNELS 3 Xrotation Yrotation Zrotation
							JOINT LeftHand
							{
								OFFSET 26.026505 0.000000 0.000000
								CHANNELS 3 Xrotation Yrotation Zrotation
								JOINT LeftHandThumb1
								{
									OFFSET 12.240501 -7.147949 9.207150
									CHANNELS 3 Xrotation Yrotation Zrotation
									JOINT LeftHandThumb2
									{
										OFFSET 4.138618 -2.389435 2.389433
										CHANNELS 3 Xrotation Yrotation Zrotation
										JOINT LeftHandThumb3
										{
											OFFSET 2.726913 -1.574387 1.574386
											CHANNELS 3 Xrotation Yrotation Zrotation
											JOINT LeftHandThumb4
											{
												OFFSET 3.941010 -2.275345 2.275342
												CHANNELS 3 Xrotation Yrotation Zrotation
												End Site
												{
													OFFSET -0.005798 5.087799 0.009903
												}
											}
										}
									}
								}
								JOINT LeftHandIndex1
								{
									OFFSET 24.424698 -1.985611 5.953459
									CHANNELS 3 Xrotation Yrotation Zrotation
									JOINT LeftHandIndex2
									{
										OFFSET 6.426697 0.000000 0.000000
										CHANNELS 3 Xrotation Yrotation Zrotation
										JOINT LeftHandIndex3
										{
											OFFSET 5.337898 0.000000 0.000000
											CHANNELS 3 Xrotation Yrotation Zrotation
											JOINT LeftHandIndex4
											{
												OFFSET 4.409401 0.000000 0.000000
												CHANNELS 3 Xrotation Yrotation Zrotation
												End Site
												{
													OFFSET 0.000000 4.409363 0.014373
												}
											}
										}
									}
								}
								JOINT LeftHandMiddle1
								{
									OFFSET 23.810104 0.000000 0.000000
									CHANNELS 3 Xrotation Yrotation Zrotation
									JOINT LeftHandMiddle2
									{
										OFFSET 7.176498 0.000000 0.000000
										CHANNELS 3 Xrotation Yrotation Zrotation
										JOINT LeftHandMiddle3
										{
											OFFSET 6.774902 0.000000 0.000000
											CHANNELS 3 Xrotation Yrotation Zrotation
											JOINT LeftHandMiddle4
											{
												OFFSET 5.403328 0.000000 0.000000
												CHANNELS 3 Xrotation Yrotation Zrotation
												End Site
												{
													OFFSET -0.027702 5.403244 0.017414
												}
											}
										}
									}
								}
								JOINT LeftHandRing1
								{
									OFFSET 22.908401 -0.839279 -6.020567
									CHANNELS 3 Xrotation Yrotation Zrotation
									JOINT LeftHandRing2
									{
										OFFSET 6.337502 0.000000 0.000000
										CHANNELS 3 Xrotation Yrotation Zrotation
										JOINT LeftHandRing3
										{
											OFFSET 5.779297 0.000000 0.000000
											CHANNELS 3 Xrotation Yrotation Zrotation
											JOINT LeftHandRing4
											{
												OFFSET 4.965698 0.000000 0.000000
												CHANNELS 3 Xrotation Yrotation Zrotation
												End Site
												{
													OFFSET 0.000000 4.965668 0.016186
												}
											}
										}
									}
								}
								JOINT LeftHandPinky1
								{
									OFFSET 20.037003 -1.530319 -10.950146
									CHANNELS 3 Xrotation Yrotation Zrotation
									JOINT LeftHandPinky2
									{
										OFFSET 5.254700 0.000000 0.000000
										CHANNELS 3 Xrotation Yrotation Zrotation
										JOINT LeftHandPinky3
										{
											OFFSET 4.810204 0.000000 0.000000
											CHANNELS 3 Xrotation Yrotation Zrotation
											JOINT LeftHandPinky4
											{
												OFFSET 3.647202 0.000000 0.000000
												CHANNELS 3 Xrotation Yrotation Zrotation
												End Site
												{
													OFFSET 0.000000 3.647186 0.011889
												}
											}
										}
									}
								}
							}
						}
					}
				}
				JOINT RightShoulder
				{
					OFFSET -15.141001 14.495407 -7.737500
					CHANNELS 3 Xrotation Yrotation Zrotation
					JOINT RightArm
					{
						OFFSET -9.308998 -2.777710 0.208500
						CHANNELS 3 Xrotation Yrotation Zrotation
						JOINT RightForeArm
						{
							OFFSET -29.972300 0.000000 0.000000
							CHANNELS 3 Xrotation Yrotation Zrotation
							JOINT RightHand
							{
								OFFSET -26.026505 0.000000 0.000000
								CHANNELS 3 Xrotation Yrotation Zrotation
								JOINT RightHandThumb1
								{
									OFFSET -12.240601 -7.148026 9.207092
									CHANNELS 3 Xrotation Yrotation Zrotation
									JOINT RightHandThumb2
									{
										OFFSET -4.138618 -2.389435 2.389433
										CHANNELS 3 Xrotation Yrotation Zrotation
										JOINT RightHandThumb3
										{
											OFFSET -2.726974 -1.574417 1.574421
											CHANNELS 3 Xrotation Yrotation Zrotation
											JOINT RightHandThumb4
											{
												OFFSET -3.941010 -2.275345 2.275343
												CHANNELS 3 Xrotation Yrotation Zrotation
												End Site
												{
													OFFSET 0.005814 5.087799 0.009927
												}
											}
										}
									}
								}
								JOINT RightHandIndex1
								{
									OFFSET -24.424698 -1.985657 5.953444
									CHANNELS 3 Xrotation Yrotation Zrotation
									JOINT RightHandIndex2
									{
										OFFSET -6.426697 0.000000 0.000000
										CHANNELS 3 Xrotation Yrotation Zrotation
										JOINT RightHandIndex3
										{
											OFFSET -5.337898 0.000000 0.000000
											CHANNELS 3 Xrotation Yrotation Zrotation
											JOINT RightHandIndex4
											{
												OFFSET -4.409401 0.000000 0.000000
												CHANNELS 3 Xrotation Yrotation Zrotation
												End Site
												{
													OFFSET 0.000000 4.409363 0.014408
												}
											}
										}
									}
								}
								JOINT RightHandMiddle1
								{
									OFFSET -23.810097 0.000000 0.000000
									CHANNELS 3 Xrotation Yrotation Zrotation
									JOINT RightHandMiddle2
									{
										OFFSET -7.176498 0.000000 0.000000
										CHANNELS 3 Xrotation Yrotation Zrotation
										JOINT RightHandMiddle3
										{
											OFFSET -6.774902 0.000000 0.000000
											CHANNELS 3 Xrotation Yrotation Zrotation
											JOINT RightHandMiddle4
											{
												OFFSET -5.403328 0.000000 0.000000
												CHANNELS 3 Xrotation Yrotation Zrotation
												End Site
												{
													OFFSET 0.027702 5.403244 0.017457
												}
											}
										}
									}
								}
								JOINT RightHandRing1
								{
									OFFSET -22.908302 -0.839325 -6.020576
									CHANNELS 3 Xrotation Yrotation Zrotation
									JOINT RightHandRing2
									{
										OFFSET -6.337502 0.000000 0.000000
										CHANNELS 3 Xrotation Yrotation Zrotation
										JOINT RightHandRing3
										{
											OFFSET -5.779297 0.000000 0.000000
											CHANNELS 3 Xrotation Yrotation Zrotation
											JOINT RightHandRing4
											{
												OFFSET -4.965698 0.000000 0.000000
												CHANNELS 3 Xrotation Yrotation Zrotation
												End Site
												{
													OFFSET 0.000000 4.965668 0.016226
												}
											}
										}
									}
								}
								JOINT RightHandPinky1
								{
									OFFSET -20.037003 -1.530334 -10.950259
									CHANNELS 3 Xrotation Yrotation Zrotation
									JOINT RightHandPinky2
									{
										OFFSET -5.254700 0.000000 0.000000
										CHANNELS 3 Xrotation Yrotation Zrotation
										JOINT RightHandPinky3
										{
											OFFSET -4.810204 0.000000 0.000000
											CHANNELS 3 Xrotation Yrotation Zrotation
											JOINT RightHandPinky4
											{
												OFFSET -3.647202 0.000000 0.000000
												CHANNELS 3 Xrotation Yrotation Zrotation
												End Site
												{
													OFFSET 0.000000 3.647186 0.011917
												}
											}
										}
									}
								}
							}
						}
					}
				}
			}
		}
	}
	JOINT LeftUpLeg
	{
		OFFSET 15.427100 -6.655098 0.678600
		CHANNELS 3 Xrotation Yrotation Zrotation
		JOINT LeftLeg
		{
			OFFSET 4.081073 -39.591068 13.024000
			CHANNELS 3 Xrotation Yrotation Zrotation
			JOINT LeftFoot
			{
				OFFSET -4.081074 -37.707932 -15.979700
				CHANNELS 3 Xrotation Yrotation Zrotation
				JOINT LeftToeBase
				{
					OFFSET 5.346399 -15.068900 20.645000
					CHANNELS 3 Xrotation Yrotation Zrotation
					JOINT LeftToe_End
					{
						OFFSET 2.754700 0.931300 11.300900
						CHANNELS 3 Xrotation Yrotation Zrotation
						End Site
						{
							OFFSET 0.000000 11.669021 0.000000
						}
					}
				}
			}
		}
	}
	JOINT RightUpLeg
	{
		OFFSET -15.569500 -6.655098 0.678600
		CHANNELS 3 Xrotation Yrotation Zrotation
		JOINT RightLeg
		{
			OFFSET -4.081825 -39.591045 13.023800
			CHANNELS 3 Xrotation Yrotation Zrotation
			JOINT RightFoot
			{
				OFFSET 4.081824 -37.707954 -15.979600
				CHANNELS 3 Xrotation Yrotation Zrotation
				JOINT RightToeBase
				{
					OFFSET -5.346400 -15.068900 20.645000
					CHANNELS 3 Xrotation Yrotation Zrotation
					JOINT RightToe_End
					{
						OFFSET -2.754700 0.931300 11.300900
						CHANNELS 3 Xrotation Yrotation Zrotation
						End Site
						{
							OFFSET 0.000000 11.669021 0.000000
						}
					}
				}
			}
		}
	}
}
MOTION
Frames: 4
Frame Time: 0.033333
0.560198 91.268433 2.658223 -0.831662 -6.137059 -1.657736 1.417234 -0.152591 0.337321 2.605645 -0.175156 0.324137 2.605858 -0.173660 0.324849 -4.328355 0.382617 -1.137600 -10.310206 0.284959 2.178132 0.000000 0.000001 0.000000 -6.162983 -14.232789 31.830573 -42.858006 -41.577271 12.565121 0.000004 -15.078252 0.000006 -25.638669 1.749811 4.878359 -6.141212 -11.690800 -6.761676 9.914110 42.595515 3.409853 -0.422801 8.108093 27.509111 -0.000000 -0.000002 0.000000 0.255320 3.378211 -45.814334 5.654090 5.847749 -88.067469 2.162147 4.544800 -50.866365 0.000000 -0.000000 -0.000001 -0.461462 3.841600 -39.722676 6.450750 5.820351 -95.892851 2.182889 4.561565 -51.127750 -0.000000 0.000000 0.000004 0.469729 4.966830 -39.799417 8.181048 5.368615 -113.503018 3.200486 5.218107 -63.022961 -0.000000 -0.000000 0.000001 -3.762420 9.063688 -45.253797 5.342541 5.828997 -85.005311 8.716831 5.103328 -119.369181 0.000000 0.000001 0.000000 -12.681751 20.817682 -37.223551 -34.113984 36.743016 -10.992730 0.000004 22.056766 -0.000009 -58.765991 16.283070 -5.768686 -7.341103 13.749666 7.412339 9.855807 -44.489096 -3.903251 -0.115782 -14.513076 -28.973874 -0.000001 -0.000003 0.000001 -0.124369 -2.384777 45.108878 4.500592 -4.654541 88.071164 1.723233 -3.618367 50.920133 -0.000001 0.000000 -0.000001 -0.761619 -2.932890 39.031072 5.133893 -4.632762 95.881663 1.739754 -3.631701 51.181374 0.000000 -0.000000 -0.000001 0.154763 -4.068808 39.122671 6.509723 -4.273599 113.462843 2.549576 -4.153925 63.067330 -0.000000 -0.000001 0.000002 -4.198876 -8.025505 44.637783 4.252920 -4.639637 85.014825 6.935959 -4.062626 119.322271 0.000000 0.000003 0.000000 -4.288811 15.545642 16.224466 25.563344 8.152210 0.073820 -16.027712 7.346268 -13.148848 -3.395645 -0.000015 -0.000001 -0.000000 0.000001 0.000000 -6.981291 -11.463458 -11.153896 23.125815 -3.746282 -2.743571 -13.592024 -3.218912 13.928719 -0.265066 0.000005 0.000003 -0.000000 -0.000001 -0.000000 
0.533202 91.229637 2.650935 -0.866251 -6.256902 -1.607109 1.407566 -0.141978 0.321230 2.595089 -0.161049 0.331619 2.595290 -0.159620 0.332295 -4.527236 0.420886 -1.297221 -10.055753 0.296960 1.960734 0.000000 0.000000 0.000000 -6.490009 -13.664960 31.827674 -43.920319 -41.917738 11.063542 0.000000 -15.379651 -0.000002 -25.638667 1.749812 4.878355 -6.141212 -11.690802 -6.761675 9.914108 42.595505 3.409849 -0.422802 8.108097 27.509108 0.000000 -0.000002 0.000000 0.255320 3.378212 -45.814331 5.654088 5.847748 -88.067469 2.162145 4.544801 -50.866362 -0.000000 0.000000 -0.000002 -0.461465 3.841599 -39.722673 6.450750 5.820351 -95.892851 2.182888 4.561564 -51.127753 0.000000 0.000000 0.000003 0.469727 4.966829 -39.799417 8.181049 5.368617 -113.503018 3.200486 5.218107 -63.022961 -0.000000 0.000001 -0.000000 -3.762423 9.063690 -45.253801 5.342542 5.828997 -85.005311 8.716828 5.103329 -119.369181 0.000000 0.000000 0.000000 -12.798312 21.382699 -36.634563 -33.442187 36.665582 -12.288663 0.000002 23.147786 0.000001 -58.699042 15.293825 -5.545774 -7.341104 13.749662 7.412337 9.855808 -44.489100 -3.903252 -0.115781 -14.513075 -28.973871 0.000000 -0.000003 0.000001 -0.124368 -2.384778 45.108874 4.500591 -4.654537 88.071164 1.723233 -3.618368 50.920133 0.000002 0.000000 -0.000000 -0.761618 -2.932892 39.031072 5.133896 -4.632768 95.881663 1.739752 -3.631703 51.181367 0.000001 0.000001 -0.000004 0.154764 -4.068812 39.122671 6.509721 -4.273601 113.462843 2.549577 -4.153926 63.067330 -0.000001 -0.000005 -0.000000 -4.198875 -8.025506 44.637779 4.252922 -4.639637 85.014818 6.935958 -4.062626 119.322271 0.000001 -0.000001 0.000000 -4.107990 15.551866 16.118579 25.458185 8.149321 0.074435 -16.126497 7.546918 -13.166477 -3.210099 -0.000006 0.000000 -0.000000 -0.000002 -0.000000 -7.084059 -11.474758 -11.211738 23.250587 -3.560706 -2.750398 -13.641878 -3.196998 13.906158 -0.242898 0.000004 -0.000002 0.000000 0.000001 0.000000 
0.529492 91.194305 2.651800 -0.931242 -6.445013 -1.544294 1.387360 -0.136960 0.315867 2.571783 -0.155936 0.353099 2.571963 -0.154926 0.353752 -4.559842 0.510125 -1.565134 -9.907151 0.435611 1.970301 -0.000000 0.000000 0.000000 -6.836835 -13.086258 31.839562 -44.972554 -42.147421 9.575544 0.000000 -15.735812 -0.000017 -25.638672 1.749812 4.878354 -6.141211 -11.690802 -6.761673 9.914108 42.595512 3.409852 -0.422801 8.108097 27.509109 0.000000 0.000003 -0.000000 0.255320 3.378211 -45.814331 5.654090 5.847750 -88.067469 2.162144 4.544800 -50.866362 0.000000 0.000000 0.000001 -0.461462 3.841600 -39.722673 6.450751 5.820350 -95.892851 2.182889 4.561566 -51.127746 0.000000 -0.000000 0.000002 0.469728 4.966829 -39.799417 8.181049 5.368615 -113.503018 3.200486 5.218107 -63.022961 -0.000000 -0.000000 -0.000001 -3.762420 9.063690 -45.253801 5.342538 5.828998 -85.005311 8.716830 5.103328 -119.369167 0.000000 0.000001 -0.000000 -12.922547 21.947141 -36.014020 -32.464241 37.065080 -13.700689 0.000004 23.584712 -0.000007 -59.002767 14.264267 -5.259358 -7.341104 13.749663 7.412341 9.855812 -44.489096 -3.903246 -0.115781 -14.513078 -28.973867 -0.000001 -0.000001 0.000001 -0.124374 -2.384774 45.108874 4.500590 -4.654539 88.071164 1.723232 -3.618369 50.920133 0.000003 -0.000001 -0.000001 -0.761624 -2.932889 39.031068 5.133894 -4.632770 95.881663 1.739757 -3.631702 51.181367 -0.000001 -0.000001 -0.000001 0.154763 -4.068809 39.122664 6.509723 -4.273596 113.462843 2.549578 -4.153926 63.067330 0.000001 -0.000001 0.000000 -4.198875 -8.025502 44.637776 4.252923 -4.639637 85.014818 6.935960 -4.062623 119.322271 0.000000 -0.000005 -0.000000 -3.852419 15.568764 15.967174 25.344744 8.145610 0.067826 -16.218691 7.803879 -13.177414 -3.052247 -0.000002 0.000003 0.000000 0.000004 0.000000 -7.208343 -11.510044 -11.290426 23.398461 -3.293027 -2.773332 -13.690206 -3.157158 13.818481 -0.241887 0.000007 -0.000002 -0.000000 -0.000001 -0.000000 
0.554831 91.179352 2.654754 -1.013652 -6.650712 -1.511214 1.374505 -0.140781 0.317970 2.556251 -0.163242 0.370047 2.556419 -0.162650 0.370704 -4.609115 0.610565 -1.715593 -9.822922 0.711309 2.092531 -0.000001 -0.000000 -0.000000 -7.184957 -12.516562 31.966446 -46.372504 -42.321044 7.963831 0.000009 -16.259853 -0.000001 -25.638676 1.749812 4.878353 -6.141212 -11.690802 -6.761680 9.914108 42.595508 3.409854 -0.422802 8.108100 27.509113 -0.000001 0.000003 -0.000000 0.255321 3.378212 -45.814331 5.654090 5.847747 -88.067476 2.162145 4.544799 -50.866362 0.000001 0.000000 -0.000002 -0.461462 3.841600 -39.722676 6.450750 5.820352 -95.892851 2.182887 4.561565 -51.127750 0.000001 -0.000000 -0.000000 0.469731 4.966830 -39.799417 8.181047 5.368615 -113.503018 3.200484 5.218107 -63.022968 -0.000000 -0.000001 -0.000003 -3.762420 9.063689 -45.253797 5.342538 5.828999 -85.005317 8.716828 5.103327 -119.369181 0.000000 0.000002 0.000000 -13.041500 22.510514 -35.385270 -31.365263 37.653965 -15.163455 0.000007 23.826044 -0.000000 -59.567302 13.703846 -5.252272 -7.341103 13.749666 7.412344 9.855806 -44.489100 -3.903251 -0.115782 -14.513080 -28.973871 0.000001 0.000002 0.000001 -0.124373 -2.384775 45.108874 4.500591 -4.654538 88.071164 1.723231 -3.618368 50.920133 0.000001 -0.000002 0.000000 -0.761619 -2.932891 39.031072 5.133896 -4.632769 95.881663 1.739747 -3.631704 51.181367 0.000000 0.000000 -0.000001 0.154764 -4.068810 39.122671 6.509724 -4.273599 113.462843 2.549575 -4.153927 63.067330 0.000002 -0.000003 0.000001 -4.198873 -8.025506 44.637779 4.252923 -4.639637 85.014818 6.935961 -4.062624 119.322271 0.000000 0.000000 0.000001 -3.624280 15.626023 15.876572 25.282020 8.140494 0.016676 -16.263705 7.981161 -13.163424 -3.004735 -0.000002 -0.000002 0.000000 0.000002 0.000000 -7.296278 -11.545999 -11.344668 23.499107 -3.028837 -2.789753 -13.702445 -3.116866 13.673399 -0.265697 0.000007 -0.000002 0.000000 0.000001 -0.000000 
